<svg id="Layer_3" data-name="Layer 3" xmlns="http://www.w3.org/2000/svg" xmlns:xlink="http://www.w3.org/1999/xlink" viewBox="0 0 793.81 752.03"><defs><style>.cls-1{fill:url(#linear-gradient);}.cls-2{fill:url(#linear-gradient-2);}.cls-3{fill:url(#linear-gradient-3);}.cls-4{fill:url(#linear-gradient-4);}</style><linearGradient id="linear-gradient" x1="413.37" y1="714.89" x2="413.37" y2="878.61" gradientUnits="userSpaceOnUse"><stop offset="0" stop-color="#1e5afa"/><stop offset="1" stop-color="#1919a5"/></linearGradient><linearGradient id="linear-gradient-2" x1="616.08" y1="406.63" x2="845.28" y2="840.22" xlink:href="#linear-gradient"/><linearGradient id="linear-gradient-3" x1="527.2" y1="191.48" x2="227.56" y2="722.3" gradientUnits="userSpaceOnUse"><stop offset="0" stop-color="#1e5afa"/><stop offset="1" stop-color="#000f73"/></linearGradient><linearGradient id="linear-gradient-4" x1="489.66" y1="592.5" x2="614.68" y2="592.5" xlink:href="#linear-gradient-3"/></defs><path class="cls-1" d="M673.81,878H213.33c-68.94,0-112.74-73.8-79.73-134.32L191,639l-.42.26C165.09,686,198.92,743,252.16,743H309l314.46-1.82A50.54,50.54,0,0,1,669,769.25l32.11,64.69A30.5,30.5,0,0,1,673.81,878Z" transform="translate(-122.38 -125.97)"/><path class="cls-2" d="M865.65,878H799.18a30,30,0,0,1-26.6-16.11L667,660,595,525l-30.6-64.12A50.69,50.69,0,0,1,566.07,414l39.42-69.35c11.59-20.4,41.06-20.19,52.37.37l252,458.2C928.37,836.85,904,878,865.65,878Z" transform="translate(-122.38 -125.97)"/><path class="cls-3" d="M581.86,220.25l-37.79-68.43c-19.09-34.57-68.82-34.44-87.73.22L190.58,639.26C165.09,686,198.92,743,252.16,743H309L581.84,249.74A30.49,30.49,0,0,0,581.86,220.25Z" transform="translate(-122.38 -125.97)"/><path class="cls-4" d="M667,660,595,525H523.68a30.66,30.66,0,0,0-26.53,15.31L471.79,584.2c-19.46,33.68,4.85,75.8,43.75,75.8Z" transform="translate(-122.38 -125.97)"/></svg>